<?xml version="1.0" encoding="utf-8"?>
<!-- Generator: Adobe Illustrator 25.3.1, SVG Export Plug-In . SVG Version: 6.00 Build 0)  -->
<svg version="1.1" id="Layer_1" xmlns="http://www.w3.org/2000/svg" xmlns:xlink="http://www.w3.org/1999/xlink" x="0px" y="0px"
	 viewBox="0 0 144.21 81.055" style="enable-background:new 0 0 144.21 81.055;" xml:space="preserve">
<style type="text/css">
	.st0{fill:#FFFFFF;}
	.st1{fill:#091F3F;}
	.st2{fill:#C5203E;}
</style>
<g>
	<g>
		<g>
			<polygon class="st0" points="143.536,77.723 142.454,79.531 141.372,77.723 140.698,77.723 140.698,81.055 141.381,81.055 
				141.381,79.066 142.267,80.545 142.641,80.545 143.526,79.066 143.526,81.055 144.21,81.055 144.21,77.723 			"/>
			<polygon class="st0" points="140.275,77.725 137.614,77.725 137.614,78.408 138.603,78.408 138.603,81.055 139.286,81.055 
				139.286,78.408 140.275,78.408 			"/>
		</g>
	</g>
	<g>
		<g>
			<g>
				<g>
					<g>
						<path class="st0" d="M132.207,0L132.207,0L12.025,0.002c-3.213,0-6.238,1.229-8.52,3.461C1.235,5.725,0,8.761,0,12.041v53.634
							c0,3.282,1.239,6.315,3.489,8.54c2.285,2.273,5.32,3.529,8.536,3.529l120.182,0.004c6.617,0,12.001-5.418,12.001-12.077
							V12.036c0-3.261-1.249-6.298-3.516-8.553C138.419,1.234,135.408,0,132.207,0L132.207,0z"/>
					</g>
				</g>
			</g>
			<path class="st1" d="M139.967,65.667V12.04c0-2.078-0.79-4.086-2.27-5.558c-1.483-1.467-3.458-2.254-5.506-2.254l-3.261,0v0
				h-15.613L82.455,33.597c-2.321,1.158-4.153,3.443-5.884,6.241l-1.823-0.716l-1.535,1.562l-1.097-1.38
				c1.083-1.042,1.575-1.627,2.484-2.15l2.229-0.911l-2.009-0.838L74.53,36.28l-2.358,0.675l-0.441,0.873l-0.711-1.256l0.784-1.848
				l-0.791-0.274l-1.637,1.138l-1.539,0.008l-1.422-3.832c0.767-0.842,1.642-1.525,1.621-1.284l2.326,1.557l4.096-2.098
				l-1.113-0.739l1.636-1.557l0.498-2.555l-3.265,0.718l3.125-3.046c-0.092-0.766-0.313-1.438-0.889-1.961
				c-0.362-0.334,0.706,1.475-1.169,1.699c-6.507,0.773-12.892,3.488-19.13,13.868c-0.935-0.108-1.382-0.345-1.728-0.652
				c0.149-1.042,0.399-2.02,0.722-2.936c2.39-6.704,8.6-10.885,13.41-12.578l0.364-0.964c-2.156-0.002-6.128,1.179-7.637,1.964
				c-1.937-0.919-0.87-3.823-3.921-5.329c-1.064-0.526-6.459-0.805-8.603,5.837c-0.248,1.963-0.167,4.178,0.338,6.662
				c0.512,2.087,1.124,3.458,1.623,4.486c0.698,1.429,1.324,2.212,2.397,3.377c-0.034,0.314-0.067,0.776-0.044,1.18
				c0,0,0.782,0.434,1.906,0.686c0.133,0.886,0.224,1.739,1.046,2.3c2.296,1.56,5.186,4.986,7.898,3.062
				c0.656,0.598,1.287,1.253,1.928,1.897l1.019,1.006c0.62,0.578,1.023,0.826,1.756,1.239l1.201,0.533l-7.2,7.105l-3.106,3.054
				l-1.086,1.067c0.234,0.236,0.53,0.544,0.597,0.675c0.113,0.227,0.181,2.113,0.251,2.368c0.067,0.262,0.064,0.547-0.01,0.678
				c-0.071,0.125-3.597-1.728-11.534,4.743c-1.35,1.123-1.887,1.345-1.903,1.348c-0.608,0.3-3.253,0.233-4.709,1.221
				c-1.203,0.87-1.902,2.124-2.432,3.122h4.043c0.713-0.976,1.642-1.726,2.537-2.305c0.929-0.604,3.107-0.571,4.064-1.061
				c1.594-0.814,3.333-3.129,6.507-4.226c1.903-0.655,5.652-0.464,6.313-2.238c0.692-1.88,3.608-2.144,5.823-3.735
				c2.039,0.381,4.003,0.749,5.761,1.097c5.019,0.995,7.961,1.855,6.606,2.68c-9.767,5.956-15.877,8.131-20.706,9.788h43.686
				c-1.313-1.042-2.433-1.973-3.117-2.631c-0.22-0.317,5.025-6.586,15.81-10.91c0-0.223,0-0.45,0.007-0.658
				c-1.914-0.018-6.226,0.506-9.986,2.894c0.707-2.096,0.743-5.247,0.722-6.607l-0.582-0.143
				c-2.264,6.709-12.905,13.89-12.905,13.89l-2.163-0.626c0.306-1.955-0.175-4.608-2.09-5.648c-4.611-2.51-9.318-3.639-14.329-4.29
				c-1.545-0.199-4.778-0.691-6.825-1.588c1.124-0.725,5.017-2.33,6.721-7.196c0.805-1.893,2.49-9.499,11.482-13.65l0.658-1.748
				c0.888-0.336,2.851-0.82,5.071-0.817c16.428,0.026,24.087,12.769,25.952,15.708c1.295,2.178,6.998,14.445,11.896,24.022h1.286
				v0.001l3.261,0C136.496,73.519,139.967,70.005,139.967,65.667z"/>
			<path class="st2" d="M63.895,45.288c-0.619-0.624-1.231-1.256-1.866-1.834c-2.713,1.925-5.603-1.502-7.901-3.063
				c-0.822-0.56-0.913-1.414-1.046-2.3c-1.124-0.251-1.906-0.686-1.906-0.686c-0.023-0.404,0.01-0.867,0.044-1.181
				c-1.072-1.165-1.699-1.948-2.397-3.378c-0.499-1.029-1.111-2.4-1.624-4.488c-1.694-8.304,1.328-13.644,5.805-16.471
				c1.186-0.681,1.865-0.975,2.418-1.236c4.564-1.845,9.915-1.564,13.396,0.485c0,0,5.95,2.52,8.548,9.781
				c0.726-0.138,1.193-0.09,1.784,0.177c0.534,0.335,1.3,3.196,1.823,5.445l20.32-22.311L23.195,4.229l-11.17,0
				c-2.078,0-4.067,0.79-5.566,2.257c-1.472,1.467-2.235,3.48-2.235,5.558v53.627c0,2.1,0.763,4.08,2.235,5.536
				c1.499,1.491,3.488,2.308,5.566,2.308l11.17,0l5.731,0c2.002-2.93,6.301-6.614,6.986-6.645c0.502-0.024,3.062,0.592,3.062,0.592
				c0.232-0.936-0.231-1.422,0.246-2.187c2.801-3.569,7.282-5.581,7.282-5.581c-0.319-1.701,1.323-2.239,1.726-2.13
				c0.399,0.115,2.066,0.572,2.602,0.49c0.573-0.086,1.057-0.061,1.439-0.001L63.895,45.288z"/>
			<polygon class="st0" points="21.721,41.902 22.489,34.786 17.607,39.981 11.275,36.991 14.689,43.089 9.824,48.267 
				16.957,46.976 20.429,53.264 21.257,46.231 28.268,44.924 			"/>
			<polygon class="st0" points="122.932,46.231 123.761,53.264 127.237,46.976 134.367,48.267 129.499,43.089 132.914,36.991 
				126.586,39.981 121.697,34.786 122.469,41.902 115.923,44.924 			"/>
			<polygon class="st0" points="34.051,17.994 31.746,11.085 29.63,17.994 22.24,17.994 28.342,22.466 26.121,29.563 31.989,25.111 
				38.015,29.354 35.572,22.343 41.466,17.994 			"/>
			<polygon class="st0" points="110.14,17.994 112.445,11.085 114.561,17.994 121.951,17.994 115.849,22.466 118.07,29.563 
				112.202,25.111 106.175,29.354 108.619,22.343 102.725,17.994 			"/>
		</g>
		<g>
			<g>
				<g>
					<path class="st0" d="M132.209,0L132.209,0L12.025,0.002c-3.213,0-6.238,1.229-8.52,3.461C1.235,5.725,0,8.761,0,12.041v53.635
						c0,3.282,1.239,6.315,3.489,8.54c2.285,2.273,5.32,3.529,8.536,3.529l120.183,0.004c6.618,0,12.001-5.418,12.001-12.077V12.036
						c0-3.261-1.249-6.298-3.516-8.553C138.42,1.234,135.409,0,132.209,0L132.209,0z"/>
				</g>
			</g>
		</g>
		<path class="st1" d="M139.969,65.668V12.04c0-2.078-0.79-4.086-2.27-5.558c-1.483-1.467-3.458-2.254-5.506-2.254l-3.261,0v0
			h-15.613L82.456,33.597c-2.321,1.158-4.153,3.443-5.884,6.241l-1.823-0.716l-1.535,1.562l-1.097-1.38
			c1.083-1.042,1.575-1.627,2.484-2.15l2.229-0.911l-2.009-0.838l-0.291,0.875l-2.358,0.675l-0.441,0.873l-0.711-1.256l0.784-1.848
			l-0.791-0.274l-1.637,1.138l-1.539,0.008l-1.422-3.832c0.767-0.842,1.642-1.525,1.621-1.284l2.326,1.557l4.096-2.098l-1.113-0.739
			l1.636-1.557l0.498-2.555l-3.265,0.718l3.125-3.046c-0.092-0.766-0.313-1.438-0.889-1.961c-0.362-0.334,0.706,1.475-1.169,1.699
			c-6.507,0.773-12.892,3.488-19.13,13.868c-0.935-0.108-1.382-0.345-1.729-0.652c0.149-1.042,0.399-2.02,0.722-2.936
			c2.39-6.704,8.6-10.885,13.41-12.578l0.364-0.964c-2.156-0.002-6.128,1.179-7.637,1.964c-1.937-0.919-0.87-3.823-3.921-5.329
			c-1.064-0.526-6.459-0.805-8.603,5.837c-0.248,1.964-0.167,4.178,0.338,6.662c0.512,2.087,1.124,3.458,1.623,4.486
			c0.698,1.429,1.324,2.212,2.397,3.377c-0.034,0.314-0.067,0.776-0.044,1.18c0,0,0.782,0.434,1.906,0.686
			c0.133,0.886,0.224,1.739,1.046,2.3c2.296,1.56,5.186,4.986,7.898,3.062c0.656,0.598,1.287,1.253,1.928,1.897l1.019,1.006
			c0.62,0.578,1.023,0.826,1.756,1.239l1.201,0.533l-7.2,7.105l-3.106,3.054l-1.086,1.067c0.234,0.236,0.53,0.544,0.597,0.675
			c0.113,0.227,0.181,2.113,0.251,2.368c0.067,0.262,0.064,0.547-0.01,0.678c-0.071,0.125-3.597-1.728-11.534,4.743
			c-1.35,1.123-1.887,1.345-1.903,1.348c-0.608,0.3-3.253,0.233-4.709,1.221c-1.203,0.87-1.902,2.124-2.432,3.122h4.043
			c0.713-0.976,1.642-1.726,2.537-2.305c0.929-0.604,3.107-0.571,4.064-1.061c1.594-0.814,3.333-3.129,6.507-4.226
			c1.903-0.655,5.652-0.464,6.313-2.238c0.692-1.88,3.608-2.144,5.823-3.735c2.039,0.381,4.003,0.749,5.761,1.097
			c5.019,0.995,7.961,1.855,6.606,2.68c-9.767,5.956-15.877,8.131-20.706,9.788h43.686c-1.313-1.042-2.433-1.973-3.117-2.631
			c-0.22-0.317,5.026-6.586,15.811-10.91c0-0.223,0-0.45,0.007-0.658c-1.914-0.018-6.226,0.506-9.987,2.894
			c0.707-2.096,0.743-5.247,0.722-6.607l-0.582-0.143c-2.264,6.709-12.905,13.89-12.905,13.89l-2.163-0.626
			c0.306-1.955-0.175-4.608-2.09-5.648c-4.611-2.51-9.318-3.639-14.329-4.29c-1.545-0.199-4.778-0.691-6.825-1.588
			c1.124-0.725,5.017-2.33,6.721-7.196c0.805-1.893,2.49-9.499,11.482-13.65l0.658-1.748c0.888-0.336,2.851-0.82,5.071-0.817
			c16.428,0.026,24.087,12.769,25.952,15.708c1.295,2.178,6.998,14.445,11.896,24.022h1.286v0.001l3.261,0
			C136.497,73.52,139.969,70.005,139.969,65.668z"/>
		<path class="st2" d="M63.896,45.288c-0.619-0.624-1.231-1.256-1.866-1.834c-2.713,1.925-5.604-1.502-7.901-3.063
			c-0.822-0.56-0.913-1.414-1.046-2.3c-1.124-0.251-1.906-0.686-1.906-0.686c-0.023-0.404,0.01-0.867,0.044-1.181
			c-1.072-1.165-1.699-1.948-2.397-3.378c-0.499-1.029-1.111-2.4-1.624-4.488c-1.694-8.304,1.328-13.644,5.805-16.471
			c1.186-0.681,1.865-0.975,2.418-1.236c4.564-1.845,9.915-1.564,13.396,0.485c0,0,5.95,2.52,8.548,9.781
			c0.726-0.138,1.193-0.09,1.784,0.177c0.534,0.335,1.3,3.196,1.823,5.445l20.32-22.311L23.195,4.23l-11.171,0
			c-2.078,0-4.067,0.79-5.566,2.257c-1.472,1.467-2.235,3.48-2.235,5.558v53.628c0,2.1,0.763,4.08,2.235,5.536
			c1.499,1.491,3.488,2.308,5.566,2.308l11.171,0l5.731,0c2.002-2.93,6.301-6.614,6.986-6.645c0.502-0.024,3.062,0.592,3.062,0.592
			c0.232-0.936-0.231-1.422,0.246-2.187c2.801-3.569,7.282-5.581,7.282-5.581c-0.319-1.701,1.323-2.239,1.726-2.13
			c0.399,0.115,2.066,0.572,2.602,0.49c0.573-0.086,1.057-0.061,1.439-0.001L63.896,45.288z"/>
		<polygon class="st0" points="21.721,41.903 22.49,34.786 17.607,39.982 11.275,36.992 14.689,43.089 9.824,48.268 16.958,46.976 
			20.429,53.264 21.257,46.231 28.269,44.924 		"/>
		<polygon class="st0" points="122.933,46.231 123.762,53.264 127.238,46.976 134.368,48.268 129.5,43.089 132.915,36.992 
			126.587,39.982 121.698,34.786 122.471,41.903 115.924,44.924 		"/>
		<polygon class="st0" points="34.051,17.994 31.746,11.085 29.63,17.994 22.24,17.994 28.342,22.466 26.121,29.563 31.989,25.111 
			38.016,29.354 35.572,22.343 41.466,17.994 		"/>
		<polygon class="st0" points="110.141,17.994 112.446,11.085 114.562,17.994 121.952,17.994 115.85,22.466 118.071,29.563 
			112.203,25.111 106.176,29.354 108.62,22.343 102.726,17.994 		"/>
	</g>
</g>
</svg>
